<?xml version="1.0" encoding="utf-8"?>
<!-- Generator: Adobe Illustrator 26.4.1, SVG Export Plug-In . SVG Version: 6.00 Build 0)  -->
<svg version="1.1" id="logo_md" xmlns="http://www.w3.org/2000/svg" xmlns:xlink="http://www.w3.org/1999/xlink" x="0px" y="0px"
	 viewBox="0 0 331.5 289.7" style="enable-background:new 0 0 331.5 289.7;" xml:space="preserve">
<style type="text/css">
	.st0{fill:url(#SVGID_1_);}
	.st1{fill:url(#SVGID_00000103265137427327695480000016594752933436107963_);}
	.st2{fill:url(#SVGID_00000109720495428370283570000005478723231374041227_);}
</style>
<g>
	
		<linearGradient id="SVGID_1_" gradientUnits="userSpaceOnUse" x1="87.875" y1="378.35" x2="330.375" y2="378.35" gradientTransform="matrix(1 0 0 1 0 -308.2967)">
		<stop  offset="0.18" style="stop-color:#FF9933"/>
		<stop  offset="1" style="stop-color:#FFCC33"/>
	</linearGradient>
	<path class="st0" d="M244,0H87.9l18.5,21.2L232,20.9c3.4,0,6.5,1.8,8.1,4.7l62.8,108.8l27.5,5.7L252.1,4.7C250.5,1.8,247.4,0,244,0
		z"/>
	
		<linearGradient id="SVGID_00000155125177495885098230000000676541918276208026_" gradientUnits="userSpaceOnUse" x1="364.3944" y1="455.7276" x2="8.9444" y2="449.4876" gradientTransform="matrix(1 0 0 1 0 -308.2967)">
		<stop  offset="0.59" style="stop-color:#FFCC00"/>
		<stop  offset="1" style="stop-color:#FF9933"/>
	</linearGradient>
	<path style="fill:url(#SVGID_00000155125177495885098230000000676541918276208026_);" d="M139.3,78L97.7,5.7
		c-2-3.6-6.2-5.8-10.3-5.7C84,0.1,81,2.1,79.3,5l-78,135.2c-1.7,2.9-1.7,6.5,0,9.4L79.5,285l8.8-26.6L25.4,149.5
		c-1.7-2.9-1.7-6.5,0-9.4L88.2,31.4l33,57.1c1.5,2.6,4.8,3.4,7.4,1.9l8.8-5.2C139.9,83.8,140.8,80.5,139.3,78L139.3,78z"/>
	
		<linearGradient id="SVGID_00000067212687249152150890000002371779765661356964_" gradientUnits="userSpaceOnUse" x1="-170.115" y1="518.8056" x2="538.495" y2="521.7356" gradientTransform="matrix(1 0 0 1 0 -308.2967)">
		<stop  offset="0.3" style="stop-color:#FF9933"/>
		<stop  offset="0.89" style="stop-color:#FFCC00"/>
	</linearGradient>
	<path style="fill:url(#SVGID_00000067212687249152150890000002371779765661356964_);" d="M320.4,134.4h-75.7c-3,0-5.4,2.4-5.4,5.4
		V150c0,3,2.4,5.4,6.2,5.1h57.6H303l-62.9,109c-1.7,2.9-4.8,4.7-8.1,4.7H106.3l30.5-52.8c1.5-2.6,0.6-5.8-2-7.3l-8.8-5.1
		c-2.6-1.5-5.8-0.6-7.3,2l-39.3,68c-2,3.5-2,7.8,0,11.4l0.7,1.1c1.3,2.2,3.7,3.6,6.3,3.6H244c3.4,0,6.5-1.8,8.1-4.7l78.2-135.4
		c1.7-2.9,1.7-6.6,0-9.5l0,0C328.3,136.6,324.5,134.4,320.4,134.4L320.4,134.4z"/>
</g>
</svg>
