<svg xmlns="http://www.w3.org/2000/svg" xmlns:xlink="http://www.w3.org/1999/xlink" width="152.392" height="133.142" viewBox="0 0 152.392 133.142">
  <defs>
    <linearGradient id="linear-gradient" y1="0.498" x2="1" y2="0.502" gradientUnits="objectBoundingBox">
      <stop offset="0.3" stop-color="#f93"/>
      <stop offset="0.89" stop-color="#fc0"/>
    </linearGradient>
    <linearGradient id="linear-gradient-2" x1="0" y1="0.5" x2="1" y2="0.5" xlink:href="#linear-gradient"/>
  </defs>
  <g id="picto_5" data-name="picto 5" transform="translate(-118.703 -135.29)">
    <path id="Tracé_67" data-name="Tracé 67" d="M270.511,199.676l-35.927-62.227a4.336,4.336,0,0,0-3.737-2.159H159.1l.012.012c-.081-.006-.157-.006-.238-.006a4.454,4.454,0,0,0-3.726,2.286L119.281,199.7a4.3,4.3,0,0,0,0,4.312L155.2,266.238l.308.528a3.338,3.338,0,0,0,2.89,1.665h72.452a4.318,4.318,0,0,0,3.737-2.153l35.927-62.227A4.4,4.4,0,0,0,270.511,199.676ZM229.03,256.657a4.3,4.3,0,0,1-3.731,2.165h-61a3.948,3.948,0,0,1-3.418-1.973l-1.3-2.257-29.2-50.574a4.3,4.3,0,0,1,0-4.312l30.5-52.814a3.955,3.955,0,0,1,3.418-1.973h60.991a4.3,4.3,0,0,1,3.743,2.153l29.207,50.592,2.432,4.207-2,3.447-29.642,51.34Z" transform="translate(0)" fill="url(#linear-gradient)"/>
    <path id="Tracé_68" data-name="Tracé 68" d="M217.782,200.65c9.813,0,18.918,4.306,26.277,9.552a86.006,86.006,0,0,1,17.659,17.212,3.169,3.169,0,0,1,0,3.749,86.173,86.173,0,0,1-17.659,17.212c-7.358,5.252-16.464,9.552-26.277,9.552s-18.918-4.306-26.277-9.552a86.006,86.006,0,0,1-17.659-17.212,3.169,3.169,0,0,1,0-3.749A86.174,86.174,0,0,1,191.505,210.2c7.358-5.252,16.464-9.552,26.277-9.552Zm0,6.366c-8.455,0-16.237,3.842-22.58,8.368a80.07,80.07,0,0,0-14.74,13.9,80.07,80.07,0,0,0,14.74,13.9c6.343,4.526,14.125,8.368,22.58,8.368s16.237-3.842,22.58-8.368a80.07,80.07,0,0,0,14.74-13.9,80.07,80.07,0,0,0-14.74-13.9C234.019,210.858,226.237,207.016,217.782,207.016Zm0,6.36a15.912,15.912,0,1,1-15.912,15.912A15.919,15.919,0,0,1,217.782,213.376Zm0,6.366a9.546,9.546,0,1,0,9.546,9.546,9.55,9.55,0,0,0-9.546-9.546Z" transform="translate(-22.885 -27.431)" fill-rule="evenodd" fill="url(#linear-gradient-2)"/>
  </g>
</svg>
