<svg xmlns="http://www.w3.org/2000/svg" xmlns:xlink="http://www.w3.org/1999/xlink" width="333.277" height="90.007" viewBox="0 0 333.277 90.007">
  <defs>
    <linearGradient id="linear-gradient" x1="-0.981" y1="0.493" x2="1.818" y2="0.506" gradientUnits="objectBoundingBox">
      <stop offset="0.3" stop-color="#f93"/>
      <stop offset="0.89" stop-color="#fc0"/>
    </linearGradient>
    <linearGradient id="linear-gradient-2" x1="-0.981" y1="0.493" x2="1.819" y2="0.506" xlink:href="#linear-gradient"/>
    <linearGradient id="linear-gradient-3" x1="0" y1="0.5" x2="6.259" y2="0.5" xlink:href="#linear-gradient"/>
    <linearGradient id="linear-gradient-4" x1="-0.825" y1="0.5" x2="1.536" y2="0.5" xlink:href="#linear-gradient"/>
    <linearGradient id="linear-gradient-5" x1="-5.259" y1="0.5" x2="1" y2="0.5" xlink:href="#linear-gradient"/>
  </defs>
  <g id="picto_1" data-name="picto 1" transform="translate(0.002 -182.48)">
    <path id="Tracé_46" data-name="Tracé 46" d="M102.632,226.007,78.342,183.94a2.925,2.925,0,0,0-2.526-1.46H27.149a3,3,0,0,0-2.52,1.546l-24.237,42a2.9,2.9,0,0,0,0,2.92l24.283,42.061.207.353a2.261,2.261,0,0,0,1.953,1.127h48.98a2.911,2.911,0,0,0,2.526-1.46l24.29-42.067a2.97,2.97,0,0,0,0-2.96ZM72.056,188.986a2.914,2.914,0,0,1,2.533,1.46l19.511,33.8H53.372l-1.167-2.033L33.135,189.066ZM7.891,228.947a2.9,2.9,0,0,1,0-2.92l19.517-33.8,18.477,32,.42.72.6,1.047.867,1.5-1.82,3.153L27.409,262.742l-19.517-33.8Zm86.255,1.713L74.589,264.535A2.911,2.911,0,0,1,72.062,266H33.035l18.477-32,1.926-3.333H94.146Z" transform="translate(0 0)" fill="url(#linear-gradient)"/>
    <path id="Tracé_47" data-name="Tracé 47" d="M448.065,226.007l-24.29-42.067a2.925,2.925,0,0,0-2.526-1.46H372.582a3,3,0,0,0-2.52,1.546l-24.25,42a2.9,2.9,0,0,0,0,2.92L370.1,271.008l.207.353a2.261,2.261,0,0,0,1.953,1.127h48.98a2.911,2.911,0,0,0,2.526-1.46l24.29-42.067a2.97,2.97,0,0,0,0-2.96Zm-30.576-37.022a2.914,2.914,0,0,1,2.533,1.46l19.511,33.8H398.805l-1.167-2.033-19.071-33.142,38.921-.08Zm-64.164,39.961a2.9,2.9,0,0,1,0-2.92l19.517-33.8,18.477,32,.42.72.6,1.047.867,1.5-1.82,3.153-18.544,32.089Zm86.255,1.713-19.557,33.875A2.911,2.911,0,0,1,417.5,266H378.468l18.477-32,1.926-3.333h40.708Z" transform="translate(-115.172 0)" fill="url(#linear-gradient-2)"/>
    <g id="Groupe_6" data-name="Groupe 6" transform="translate(118.663 224.821)">
      <path id="Tracé_48" data-name="Tracé 48" d="M180.686,251.333a2.666,2.666,0,1,1,0-5.333h10a2.666,2.666,0,0,1,0,5.333Z" transform="translate(-178.02 -246)" fill="url(#linear-gradient-3)"/>
      <path id="Tracé_49" data-name="Tracé 49" d="M231.006,251.333a2.666,2.666,0,1,1,0-5.333H254.55a2.666,2.666,0,1,1,0,5.333Z" transform="translate(-194.798 -246)" fill="url(#linear-gradient-4)"/>
      <path id="Tracé_50" data-name="Tracé 50" d="M301.646,251.333a2.666,2.666,0,1,1,0-5.333h10a2.666,2.666,0,1,1,0,5.333Z" transform="translate(-218.351 -246)" fill="url(#linear-gradient-5)"/>
    </g>
  </g>
</svg>
