<svg xmlns="http://www.w3.org/2000/svg" xmlns:xlink="http://www.w3.org/1999/xlink" width="89.176" height="219.402" viewBox="0 0 89.176 219.402">
  <defs>
    <linearGradient id="linear-gradient" x1="-0.981" y1="0.493" x2="1.819" y2="0.506" gradientUnits="objectBoundingBox">
      <stop offset="0.3" stop-color="#f93"/>
      <stop offset="0.89" stop-color="#fc0"/>
    </linearGradient>
    <linearGradient id="linear-gradient-3" x1="-0.138" y1="0.112" x2="1.199" y2="0.868" xlink:href="#linear-gradient"/>
  </defs>
  <g id="picto_3" data-name="picto 3" transform="translate(-172.698 -59.86)">
    <path id="Tracé_62" data-name="Tracé 62" d="M261.543,342.785l-21.024-36.411a2.532,2.532,0,0,0-2.187-1.263H196.21a2.6,2.6,0,0,0-2.181,1.339L173.039,342.8a2.506,2.506,0,0,0,0,2.527l21.018,36.405.179.306a1.957,1.957,0,0,0,1.69.975h42.394a2.52,2.52,0,0,0,2.187-1.263l21.024-36.411a2.57,2.57,0,0,0,0-2.562Zm-26.465-32.044A2.522,2.522,0,0,1,237.271,312l16.887,29.251H218.907l-1.01-1.76L201.391,310.81Zm-55.537,34.582a2.506,2.506,0,0,1,0-2.527l16.893-29.251,15.993,27.7.363.623.519.906.75,1.3-1.575,2.729-16.051,27.774Zm74.657,1.489-16.928,29.32a2.52,2.52,0,0,1-2.187,1.263H201.3L217.3,349.7l1.667-2.885H254.2Z" transform="translate(0 -103.754)" fill="url(#linear-gradient)"/>
    <path id="Tracé_63" data-name="Tracé 63" d="M261.543,97.535,240.519,61.124a2.532,2.532,0,0,0-2.187-1.264H196.21a2.6,2.6,0,0,0-2.181,1.339L173.039,97.552a2.506,2.506,0,0,0,0,2.527l21.018,36.405.179.306a1.957,1.957,0,0,0,1.69.975h42.394a2.52,2.52,0,0,0,2.187-1.264l21.024-36.411a2.57,2.57,0,0,0,0-2.562ZM235.079,65.491a2.522,2.522,0,0,1,2.192,1.264l16.887,29.251H218.907l-1.01-1.76L201.391,65.56Zm-55.537,34.582a2.506,2.506,0,0,1,0-2.527l16.893-29.251,15.993,27.7.363.623.519.906.75,1.3-1.575,2.729-16.051,27.774Zm74.657,1.489-16.928,29.32a2.52,2.52,0,0,1-2.187,1.264H201.3l15.993-27.7,1.667-2.885H254.2Z" transform="translate(0 0)" fill="url(#linear-gradient)"/>
    <path id="Tracé_64" data-name="Tracé 64" d="M246.9,242.889V211.376a2.6,2.6,0,1,0-5.193,0v31.513H236.54l7.766,13.449,7.766-13.449H246.9Z" transform="translate(-27.009 -63.001)" fill="url(#linear-gradient-3)"/>
  </g>
</svg>
