<svg xmlns="http://www.w3.org/2000/svg" xmlns:xlink="http://www.w3.org/1999/xlink" width="152.392" height="133.141" viewBox="0 0 152.392 133.141">
  <defs>
    <linearGradient id="linear-gradient" y1="0.498" x2="1" y2="0.502" gradientUnits="objectBoundingBox">
      <stop offset="0.3" stop-color="#f93"/>
      <stop offset="0.89" stop-color="#fc0"/>
    </linearGradient>
    <linearGradient id="linear-gradient-2" x1="0" y1="0.5" x2="7.132" y2="0.5" xlink:href="#linear-gradient"/>
    <linearGradient id="linear-gradient-3" x1="-0.2" y1="0.5" x2="1.122" y2="0.5" xlink:href="#linear-gradient"/>
    <linearGradient id="linear-gradient-4" x1="-6.132" y1="0.5" x2="1" y2="0.5" xlink:href="#linear-gradient"/>
    <linearGradient id="linear-gradient-5" x1="-6.139" y1="0.5" x2="0.999" y2="0.5" xlink:href="#linear-gradient"/>
    <linearGradient id="linear-gradient-6" x1="-0.122" y1="0.5" x2="1.2" y2="0.5" xlink:href="#linear-gradient"/>
    <linearGradient id="linear-gradient-7" x1="0.001" y1="0.501" x2="7.138" y2="0.501" xlink:href="#linear-gradient"/>
    <linearGradient id="linear-gradient-8" x1="0" y1="0.5" x2="10.978" y2="0.5" xlink:href="#linear-gradient"/>
    <linearGradient id="linear-gradient-9" x1="-0.215" y1="0.5" x2="1.131" y2="0.5" xlink:href="#linear-gradient"/>
    <linearGradient id="linear-gradient-10" x1="-9.978" y1="0.5" x2="1" y2="0.5" xlink:href="#linear-gradient"/>
  </defs>
  <g id="picto_2" data-name="picto 2" transform="translate(-118.702 -135.28)">
    <path id="Tracé_52" data-name="Tracé 52" d="M270.511,199.666l-35.927-62.227a4.335,4.335,0,0,0-3.737-2.159H159.1l.012.012c-.081-.006-.157-.006-.238-.006a4.454,4.454,0,0,0-3.726,2.286l-35.863,62.123a4.3,4.3,0,0,0,0,4.312L155.2,266.228l.308.528a3.338,3.338,0,0,0,2.89,1.665h72.452a4.318,4.318,0,0,0,3.737-2.153l35.927-62.227A4.4,4.4,0,0,0,270.511,199.666ZM229.03,256.647a4.3,4.3,0,0,1-3.731,2.165h-61a3.948,3.948,0,0,1-3.418-1.973l-1.3-2.257-29.2-50.574a4.3,4.3,0,0,1,0-4.312l30.5-52.814a3.955,3.955,0,0,1,3.418-1.973h60.991a4.3,4.3,0,0,1,3.743,2.153l29.207,50.592,2.431,4.207-2,3.447-29.642,51.34Z" fill="url(#linear-gradient)"/>
    <g id="Groupe_10" data-name="Groupe 10" transform="translate(162.082 147.382)">
      <path id="Tracé_53" data-name="Tracé 53" d="M199.1,166.879a3.475,3.475,0,0,1-3.023-1.753l-2.165-3.778a3.482,3.482,0,1,1,6.041-3.464l2.165,3.778a3.477,3.477,0,0,1-3.018,5.211Z" transform="translate(-193.454 -156.134)" fill="url(#linear-gradient-2)"/>
      <path id="Tracé_54" data-name="Tracé 54" d="M252.354,259.837a3.475,3.475,0,0,1-3.023-1.753l-3.842-6.708a3.482,3.482,0,0,1,6.041-3.464l3.842,6.708a3.477,3.477,0,0,1-3.018,5.211Zm-11.531-20.131a3.475,3.475,0,0,1-3.023-1.753l-3.842-6.708A3.482,3.482,0,1,1,240,227.781l3.842,6.708a3.477,3.477,0,0,1-3.018,5.211Zm-11.531-20.125a3.475,3.475,0,0,1-3.023-1.753l-3.842-6.708a3.482,3.482,0,1,1,6.041-3.464l3.842,6.708a3.477,3.477,0,0,1-3.018,5.211ZM217.761,199.45a3.475,3.475,0,0,1-3.023-1.753l-3.842-6.708a3.482,3.482,0,0,1,6.041-3.464l3.842,6.708a3.477,3.477,0,0,1-3.018,5.211Z" transform="translate(-200.58 -168.574)" fill="url(#linear-gradient-3)"/>
      <path id="Tracé_55" data-name="Tracé 55" d="M295.554,335.259a3.475,3.475,0,0,1-3.023-1.753l-2.165-3.778a3.482,3.482,0,1,1,6.041-3.464l2.165,3.778a3.477,3.477,0,0,1-3.018,5.211Z" transform="translate(-233.933 -226.801)" fill="url(#linear-gradient-4)"/>
    </g>
    <g id="Groupe_11" data-name="Groupe 11" transform="translate(162.121 147.259)">
      <path id="Tracé_56" data-name="Tracé 56" d="M293.532,166.668a3.442,3.442,0,0,1-1.724-.458,3.485,3.485,0,0,1-1.3-4.753l2.159-3.778a3.484,3.484,0,0,1,6.053,3.453l-2.159,3.778A3.483,3.483,0,0,1,293.532,166.668Z" transform="translate(-234.034 -155.921)" fill="url(#linear-gradient-5)"/>
      <path id="Tracé_57" data-name="Tracé 57" d="M213.982,260.03a3.442,3.442,0,0,1-1.724-.458,3.485,3.485,0,0,1-1.3-4.753l3.847-6.743a3.484,3.484,0,1,1,6.053,3.453l-3.847,6.743A3.483,3.483,0,0,1,213.982,260.03Zm11.537-20.224a3.442,3.442,0,0,1-1.724-.458,3.485,3.485,0,0,1-1.3-4.753l3.847-6.743A3.484,3.484,0,0,1,232.4,231.3l-3.847,6.743A3.483,3.483,0,0,1,225.519,239.806Zm11.542-20.218a3.442,3.442,0,0,1-1.723-.458,3.485,3.485,0,0,1-1.3-4.753l3.847-6.743a3.484,3.484,0,0,1,6.053,3.453l-3.847,6.743A3.483,3.483,0,0,1,237.062,219.587ZM248.6,199.363a3.442,3.442,0,0,1-1.724-.458,3.485,3.485,0,0,1-1.3-4.753l3.847-6.743a3.484,3.484,0,1,1,6.053,3.453l-3.847,6.743A3.483,3.483,0,0,1,248.6,199.363Z" transform="translate(-200.648 -168.399)" fill="url(#linear-gradient-6)"/>
      <path id="Tracé_58" data-name="Tracé 58" d="M197,335.788a3.442,3.442,0,0,1-1.724-.458,3.485,3.485,0,0,1-1.3-4.753l2.159-3.778a3.484,3.484,0,1,1,6.053,3.453l-2.159,3.778A3.483,3.483,0,0,1,197,335.788Z" transform="translate(-193.521 -226.899)" fill="url(#linear-gradient-7)"/>
    </g>
    <g id="Groupe_12" data-name="Groupe 12" transform="translate(132.93 198.047)">
      <path id="Tracé_59" data-name="Tracé 59" d="M151.054,250.4H146.7a3.482,3.482,0,1,1,0-6.964h4.352a3.482,3.482,0,0,1,0,6.964Z" transform="translate(-143.22 -243.44)" fill="url(#linear-gradient-8)"/>
      <path id="Tracé_60" data-name="Tracé 60" d="M258.479,250.4h-7.753a3.482,3.482,0,1,1,0-6.964h7.753a3.482,3.482,0,1,1,0,6.964Zm-23.265,0h-7.753a3.482,3.482,0,0,1,0-6.964h7.753a3.482,3.482,0,0,1,0,6.964Zm-23.265,0H204.2a3.482,3.482,0,1,1,0-6.964h7.753a3.482,3.482,0,1,1,0,6.964Zm-23.265,0h-7.753a3.482,3.482,0,1,1,0-6.964h7.753a3.482,3.482,0,1,1,0,6.964Z" transform="translate(-157.586 -243.44)" fill="url(#linear-gradient-9)"/>
      <path id="Tracé_61" data-name="Tracé 61" d="M345.634,250.4h-4.352a3.482,3.482,0,0,1,0-6.964h4.352a3.482,3.482,0,0,1,0,6.964Z" transform="translate(-224.882 -243.44)" fill="url(#linear-gradient-10)"/>
    </g>
  </g>
</svg>
