<svg xmlns="http://www.w3.org/2000/svg" xmlns:xlink="http://www.w3.org/1999/xlink" width="163.116" height="142.516" viewBox="0 0 163.116 142.516">
  <defs>
    <linearGradient id="linear-gradient" x1="-0.98" y1="0.493" x2="1.819" y2="0.506" gradientUnits="objectBoundingBox">
      <stop offset="0.3" stop-color="#f93"/>
      <stop offset="0.89" stop-color="#fc0"/>
    </linearGradient>
    <linearGradient id="linear-gradient-2" x1="-0.981" y1="0.493" x2="1.819" y2="0.506" xlink:href="#linear-gradient"/>
  </defs>
  <g id="picto_4" data-name="picto 4" transform="translate(-103.542 -122.05)">
    <path id="Tracé_65" data-name="Tracé 65" d="M260.149,223.384l-17.341-30.032a2.1,2.1,0,0,0-1.8-1.041H206.26a2.173,2.173,0,0,0-1.8,1.1l-17.308,29.982a2.051,2.051,0,0,0,0,2.083l9.873,17.107,5.541,9.595,1.916,3.325.145.251a1.616,1.616,0,0,0,1.4.807h34.966a2.1,2.1,0,0,0,1.8-1.041l17.341-30.032a2.1,2.1,0,0,0,0-2.111Zm-21.824-26.429a2.088,2.088,0,0,1,1.81,1.041l13.927,24.124H224.988l-.835-1.448-5.675-9.868-7.935-13.788,27.783-.056ZM206.45,249.607l-1.192-2.066-5.58-9.662-7.161-12.4a2.051,2.051,0,0,1,0-2.083l13.933-24.124,8.225,14.245,4.967,8.6.3.512.434.746.618,1.069-1.3,2.25-4.644,8.03L206.455,249.6ZM254.1,226.7l-13.961,24.18a2.086,2.086,0,0,1-1.8,1.041H210.47l8.348-14.451,4.845-8.392,1.375-2.378H254.1Z" transform="translate(-36.924 -31.134)" fill="url(#linear-gradient)"/>
    <path id="Tracé_66" data-name="Tracé 66" d="M266.032,190.969,227.58,124.361a4.626,4.626,0,0,0-4-2.311h-76.8v.011h-.245a4.765,4.765,0,0,0-3.982,2.445L104.165,191a4.592,4.592,0,0,0,0,4.617l38.441,66.6.329.562a3.576,3.576,0,0,0,3.1,1.788h77.551a4.621,4.621,0,0,0,4-2.305l38.452-66.6a4.69,4.69,0,0,0,0-4.683ZM252.6,198.325l-30.962,53.627a4.614,4.614,0,0,1-4,2.311H155.854l9.161-15.86a3.561,3.561,0,0,0-1.877-5.118,14.594,14.594,0,0,1-2.25-1.064,3.581,3.581,0,0,0-4.917,1.264l-9.033,15.632-30.9-53.51a4.592,4.592,0,0,1,0-4.617l30.9-53.5,8.6,14.9a3.58,3.58,0,0,0,4.934,1.253,14.544,14.544,0,0,1,2.283-1.086,3.556,3.556,0,0,0,1.86-5.107L156,132.475l61.618-.128a4.609,4.609,0,0,1,4.01,2.305l30.89,53.5H236.228a3.529,3.529,0,0,0-3.531,3.965,15.745,15.745,0,0,1,.145,2.127c0,.145,0,.29-.006.429a3.545,3.545,0,0,0,3.547,3.636h16.233l-.028.011Z" transform="translate(0 0)" fill="url(#linear-gradient-2)"/>
  </g>
</svg>
