<svg height="114.239" viewBox="0 0 108.297 114.239" width="108.297" xmlns="http://www.w3.org/2000/svg"><g fill="#fff" transform="translate(-8.527 -6.25)"><path d="m110.563 54.429a6.241 6.241 0 0 0 6.232-6.232c-.061-.612.224-6.3-.26-6.732a2.5 2.5 0 0 0 -.663-.78l-49.96-33.44a5.812 5.812 0 0 0 -6.5 0l-49.962 33.44a2.52 2.52 0 0 0 -.668.78 1.929 1.929 0 0 0 -.255.949v5.786a6.238 6.238 0 0 0 6.232 6.232h7.257v51.048h-3.284a2.073 2.073 0 0 0 -2.025 1.617l-2.1 9.236h-2.439a2.079 2.079 0 0 0 0 4.156h100.98a2.081 2.081 0 0 0 2.081-2.076c-.122-2.555-2.759-2.045-4.519-2.076l-2.1-9.241c-.515-2.336-3.631-1.459-5.309-1.617v-51.05zm-48.837-43.737a1.679 1.679 0 0 1 1.872 0l44.283 29.646h-90.439zm-49.046 37.508v-3.71h99.959v3.71a2.074 2.074 0 0 1 -2.076 2.076h-95.803a2.082 2.082 0 0 1 -2.081-2.076zm73.883 15.44c.02.031-.015 41.789 0 41.835h-15.533v-51.051h15.533zm-47.806 41.84v-51.051h15.534v51.051zm28.121-43.88h-8.43v-7.17h8.43zm-8.43 43.885v-39.734h8.43v39.729zm-23.848-51.056v7.165h-8.43v-7.165zm-8.43 11.322h8.43v39.729h-8.425zm80.273 50.581h-87.572l1.52-6.7c2.31.005 13.714.01 16.285.01.061-.015 19.619-.015 19.691 0 13-.005 31.85-.005 44.859 0 .031-.025 3.667 0 3.7-.01zm-15.724-10.858v-39.724h8.43v39.729zm8.43-43.88h-8.43v-7.165h8.43z"/><path d="m51.929 15.25a8.377 8.377 0 1 0 8.293 8.374 8.379 8.379 0 0 0 -8.293-8.374zm0 12.6a4.221 4.221 0 1 1 4.156-4.223 4.22 4.22 0 0 1 -4.156 4.22z" transform="translate(10.729 2.75)"/></g></svg>