<svg xmlns="http://www.w3.org/2000/svg" width="121.012" height="121.021" viewBox="0 0 121.012 121.021">
  <g id="noun-gear-7865922" transform="translate(-9.523 -9.524)">
    <path id="Tracé_1092" data-name="Tracé 1092" d="M127.288,54.419,112.163,53.4c-.164-.409-.327-.829-.5-1.238l10.57-10.57a3.5,3.5,0,0,0,0-4.952l-18.8-18.792a3.5,3.5,0,0,0-4.952,0l-10.57,10.57c-.409-.175-.818-.339-1.238-.5L85.651,12.795a3.5,3.5,0,0,0-3.492-3.27H57.912a3.492,3.492,0,0,0-3.492,3.27L53.4,27.919c-.409.164-.829.327-1.238.5L41.6,17.851a3.5,3.5,0,0,0-4.952,0L17.852,36.643a3.5,3.5,0,0,0,0,4.952l10.57,10.57c-.175.409-.35.818-.5,1.238L12.8,54.419a3.516,3.516,0,0,0-3.27,3.609l.829,24.83a3.506,3.506,0,0,0,3.375,3.387l14.214.5c.152.385.315.771.479,1.156l-10.57,10.57a3.5,3.5,0,0,0,0,4.952l18.792,18.792a3.5,3.5,0,0,0,4.952,0l10.57-10.57c.409.175.818.339,1.238.5l1.016,15.125a3.5,3.5,0,0,0,3.492,3.27H82.159a3.492,3.492,0,0,0,3.492-3.27l1.016-15.125c.409-.164.829-.327,1.226-.5l10.57,10.57a3.5,3.5,0,0,0,4.952,0l18.792-18.792a3.5,3.5,0,0,0,0-4.952L111.638,87.9c.175-.409.339-.818.5-1.226l15.125-1.016a3.5,3.5,0,0,0,3.27-3.492V57.91a3.472,3.472,0,0,0-3.247-3.492Zm-3.749,24.468-14.132.946a3.5,3.5,0,0,0-3.083,2.383,37.831,37.831,0,0,1-2.021,4.87,3.518,3.518,0,0,0,.654,4.041l9.822,9.822-13.84,13.84-9.822-9.822a3.5,3.5,0,0,0-4.041-.654,39.27,39.27,0,0,1-4.87,2.021,3.51,3.51,0,0,0-2.383,3.083l-.946,14.132H61.194l-.946-14.132a3.5,3.5,0,0,0-2.383-3.083,38.526,38.526,0,0,1-4.87-2.021,3.518,3.518,0,0,0-4.041.654l-9.822,9.822L25.28,100.95,35.1,91.128a3.5,3.5,0,0,0,.654-4.041,37.843,37.843,0,0,1-2.021-4.87,3.49,3.49,0,0,0-3.2-2.383l-13.3-.467-.607-18.173,14.015-.946a3.5,3.5,0,0,0,3.083-2.383,37.142,37.142,0,0,1,2.021-4.87,3.5,3.5,0,0,0-.654-4.041l-9.822-9.822,13.84-13.84,9.822,9.822a3.5,3.5,0,0,0,4.041.654,37.168,37.168,0,0,1,4.87-2.021,3.51,3.51,0,0,0,2.383-3.083l.946-14.132H78.865l.946,14.132a3.5,3.5,0,0,0,2.383,3.083,37.145,37.145,0,0,1,4.87,2.021,3.5,3.5,0,0,0,4.041-.654l9.822-9.822,13.84,13.84-9.822,9.822a3.5,3.5,0,0,0-.654,4.041,38,38,0,0,1,2.021,4.882,3.51,3.51,0,0,0,3.083,2.383l14.12.946V78.888Z" transform="translate(0)" fill="#fff"/>
    <path id="Tracé_1093" data-name="Tracé 1093" d="M55.329,39.234A16.095,16.095,0,1,0,71.424,55.329,16.111,16.111,0,0,0,55.329,39.234Zm0,25.181a9.087,9.087,0,1,1,9.087-9.087A9.1,9.1,0,0,1,55.329,64.415Z" transform="translate(14.706 14.706)" fill="#fff"/>
  </g>
</svg>
