<svg xmlns="http://www.w3.org/2000/svg" width="120.822" height="133.231" viewBox="0 0 120.822 133.231">
  <g id="noun-secured-5109851" transform="translate(-2.25 -1.247)">
    <g id="Groupe_121" data-name="Groupe 121" transform="translate(2.25 1.247)">
      <path id="Tracé_997" data-name="Tracé 997" d="M62.661,134.479a4.771,4.771,0,0,1-1.859-.372A98.7,98.7,0,0,1,2.25,44.017V18.3A4.709,4.709,0,0,1,6.9,13.656h3.284A112.4,112.4,0,0,0,60.555,1.76a4.585,4.585,0,0,1,4.213,0,112.4,112.4,0,0,0,50.374,11.9h3.284a4.709,4.709,0,0,1,4.647,4.647V44.017a98.7,98.7,0,0,1-58.552,90.09,4.771,4.771,0,0,1-1.859.372ZM11.544,22.95V44.017a89.285,89.285,0,0,0,51.117,80.548,89.285,89.285,0,0,0,51.117-80.548V22.95a121.442,121.442,0,0,1-51.117-11.9,121.442,121.442,0,0,1-51.117,11.9ZM57.952,83.485a4.771,4.771,0,0,1-3.284-1.3L40.541,68.305a4.647,4.647,0,0,1,6.506-6.63L57.952,72.333,84.471,46.247a4.644,4.644,0,0,1,6.568,6.568l-29.8,29.307A4.647,4.647,0,0,1,57.952,83.485Z" transform="translate(-2.25 -1.247)" fill="#fff"/>
    </g>
  </g>
</svg>
