<svg xmlns="http://www.w3.org/2000/svg" width="316.277" height="90.007" viewBox="0 0 316.277 90.007">
  <g id="picto_1" data-name="picto 1" transform="translate(-16.998 -182.48)">
    <path id="Tracé_46" data-name="Tracé 46" d="M102.632,226.007,78.342,183.94a2.925,2.925,0,0,0-2.526-1.46H27.149a3,3,0,0,0-2.52,1.546l-24.237,42a2.9,2.9,0,0,0,0,2.92l24.283,42.061.207.353a2.261,2.261,0,0,0,1.953,1.127h48.98a2.911,2.911,0,0,0,2.526-1.46l24.29-42.067a2.97,2.97,0,0,0,0-2.96ZM72.056,188.986a2.914,2.914,0,0,1,2.533,1.46l19.511,33.8H53.372l-1.167-2.033L33.135,189.066ZM7.891,228.947a2.9,2.9,0,0,1,0-2.92l19.517-33.8,18.477,32,.42.72.6,1.047.867,1.5-1.82,3.153L27.409,262.742l-19.517-33.8Zm86.255,1.713L74.589,264.535A2.911,2.911,0,0,1,72.062,266H33.035l18.477-32,1.926-3.333H94.146Z" transform="translate(17 0)" fill="#fff"/>
    <path id="Tracé_47" data-name="Tracé 47" d="M448.065,226.007l-24.29-42.067a2.925,2.925,0,0,0-2.526-1.46H372.582a3,3,0,0,0-2.52,1.546l-24.25,42a2.9,2.9,0,0,0,0,2.92L370.1,271.008l.207.353a2.261,2.261,0,0,0,1.953,1.127h48.98a2.911,2.911,0,0,0,2.526-1.46l24.29-42.067a2.97,2.97,0,0,0,0-2.96Zm-30.576-37.022a2.914,2.914,0,0,1,2.533,1.46l19.511,33.8H398.805l-1.167-2.033-19.071-33.142,38.921-.08Zm-64.164,39.961a2.9,2.9,0,0,1,0-2.92l19.517-33.8,18.477,32,.42.72.6,1.047.867,1.5-1.82,3.153-18.544,32.089Zm86.255,1.713-19.557,33.875A2.911,2.911,0,0,1,417.5,266H378.468l18.477-32,1.926-3.333h40.708Z" transform="translate(-115.172 0)" fill="#fff"/>
    <g id="noun-dollar-1799967" transform="translate(139.136 150.987)">
      <path id="Tracé_1029" data-name="Tracé 1029" d="M37.56,20.718H34.553a3.951,3.951,0,0,1-3.935-4.378,4.131,4.131,0,0,1,4.2-3.537h3.537a2.753,2.753,0,0,1,2.7,2.167.758.758,0,0,0,.752.575h3.98a.8.8,0,0,0,.8-.84,8.286,8.286,0,0,0-7.738-7.429V3.3a.793.793,0,0,0-.8-.8h-3.98a.793.793,0,0,0-.8.8V7.32a9.557,9.557,0,0,0-8.225,10.391,9.833,9.833,0,0,0,9.9,8.578H37.56A3.951,3.951,0,0,1,41.5,30.667a4.131,4.131,0,0,1-4.2,3.537H33.757a2.753,2.753,0,0,1-2.7-2.167.758.758,0,0,0-.752-.575h-3.98a.8.8,0,0,0-.8.84,8.286,8.286,0,0,0,7.738,7.429v3.98a.793.793,0,0,0,.8.8h3.98a.793.793,0,0,0,.8-.8V39.643a9.709,9.709,0,0,0,8.225-8.4A9.593,9.593,0,0,0,37.56,20.718Z" transform="translate(0 52.993)" fill="#fff"/>
    </g>
  </g>
</svg>
